<svg width="35" height="35" viewBox="0 0 35 35" fill="none" xmlns="http://www.w3.org/2000/svg">
<g clip-path="url(#clip0)">
<path d="M31.1753 3.82423C28.7092 1.3581 25.4304 0 21.9429 0C18.4553 0 15.1765 1.3581 12.7105 3.82423C10.2444 6.29029 8.88624 9.56908 8.88624 13.0566C8.88624 15.0548 9.33284 16.984 10.1774 18.7316L7.29661 21.6124C6.89617 22.0128 6.89617 22.662 7.29661 23.0625L7.34494 23.1108L0.940491 29.5153C-0.312195 30.7679 -0.312195 32.8063 0.940491 34.059C1.54739 34.6658 2.35423 35 3.21241 35C4.0706 35 4.87744 34.6658 5.48427 34.059L11.8887 27.6545L11.9371 27.7028C12.1373 27.9031 12.3997 28.0031 12.6621 28.0031C12.9244 28.0031 13.1869 27.9031 13.3871 27.7028L16.2679 24.822C18.0154 25.6667 19.9447 26.1133 21.9429 26.1133C25.4304 26.1133 28.7092 24.7552 31.1753 22.2891C33.6414 19.823 34.9995 16.5441 34.9995 13.0566C34.9995 9.56908 33.6414 6.29029 31.1753 3.82423ZM4.03409 32.6089C3.81466 32.8284 3.52283 32.9492 3.21241 32.9492C2.90199 32.9492 2.61017 32.8284 2.39067 32.6089C1.93758 32.1558 1.93758 31.4184 2.39067 30.9654L8.79512 24.5609L10.4386 26.2044L4.03409 32.6089ZM12.6621 25.5277L12.6139 25.4795C12.6138 25.4795 12.6138 25.4794 12.6137 25.4793C12.6137 25.4793 12.6136 25.4792 12.6135 25.4792L9.52014 22.3857L9.47181 22.3374L11.2518 20.5574C11.683 21.1694 12.1702 21.7487 12.7105 22.2891C13.2508 22.8294 13.8301 23.3164 14.4421 23.7477L12.6621 25.5277ZM29.7252 20.8389C27.6465 22.9177 24.8827 24.0625 21.9429 24.0625C20.04 24.0625 18.2112 23.5823 16.5938 22.6801C16.574 22.6685 16.5542 22.6572 16.5338 22.6471C15.6752 22.1611 14.8772 21.5555 14.1606 20.8389C13.4438 20.1221 12.8382 19.324 12.3522 18.4652C12.3422 18.4453 12.3311 18.4259 12.3198 18.4064C11.4174 16.7889 10.937 14.9598 10.937 13.0566C10.937 10.1168 12.0818 7.35301 14.1606 5.27427C16.2393 3.1956 19.0031 2.05078 21.9429 2.05078C24.8827 2.05078 27.6465 3.1956 29.7252 5.27434C31.8039 7.35308 32.9487 10.1168 32.9487 13.0566C32.9487 15.9964 31.8039 18.7602 29.7252 20.8389Z" fill="#101010"/>
<path d="M28.0813 6.91784C26.4441 5.28063 24.2639 4.37891 21.9425 4.37891C19.621 4.37891 17.4409 5.28057 15.8037 6.91784C14.1664 8.55512 13.2646 10.7352 13.2646 13.0567C13.2646 15.3781 14.1663 17.5583 15.8037 19.1956C17.4409 20.8329 19.621 21.7345 21.9425 21.7345C24.2639 21.7345 26.4441 20.8329 28.0813 19.1956C29.7185 17.5583 30.6203 15.3781 30.6203 13.0567C30.6203 10.7353 29.7186 8.55512 28.0813 6.91784ZM26.6312 17.7454C25.3812 18.9954 23.716 19.6837 21.9425 19.6837C20.1689 19.6837 18.5036 18.9953 17.2538 17.7454C16.0039 16.4955 15.3154 14.8304 15.3154 13.0567C15.3154 11.2831 16.0038 9.6179 17.2537 8.36802C18.5036 7.11814 20.1688 6.42976 21.9424 6.42976C23.716 6.42976 25.3812 7.11814 26.6311 8.36809C27.881 9.61804 28.5694 11.2831 28.5694 13.0568C28.5694 14.8304 27.8811 16.4955 26.6312 17.7454Z" fill="#101010"/>
</g>
<defs>
<clipPath id="clip0">
<rect width="35" height="35" fill="white"/>
</clipPath>
</defs>
</svg>
