<svg width="25" height="25" viewBox="0 0 25 25" fill="none" xmlns="http://www.w3.org/2000/svg">
<g clip-path="url(#clip0)">
<path d="M24.1927 6.65687C23.9706 6.65687 23.7907 6.83684 23.7907 7.05891V18.7516C23.7907 21.7536 21.3483 24.1959 18.3464 24.1959H6.65363C3.65172 24.1959 1.2093 21.7536 1.2093 18.7516V7.05891C1.2093 4.05695 3.65172 1.61457 6.65363 1.61457H18.3464C18.5684 1.61457 18.7484 1.43461 18.7484 1.21254C18.7484 0.990469 18.5684 0.810547 18.3464 0.810547H6.65363C3.20836 0.810547 0.405273 3.61359 0.405273 7.05891V18.7516C0.405273 22.1969 3.20836 25 6.65363 25H18.3464C21.7916 25 24.5947 22.1969 24.5947 18.7516V7.05891C24.5947 6.83684 24.4148 6.65687 24.1927 6.65687Z" fill="black"/>
</g>
<defs>
<clipPath id="clip0">
<rect width="25" height="25" fill="white"/>
</clipPath>
</defs>
</svg>
